<?xml version="1.0" encoding="iso-8859-1"?>
<!-- Generator: Adobe Illustrator 18.0.0, SVG Export Plug-In . SVG Version: 6.00 Build 0)  -->
<!DOCTYPE svg PUBLIC "-//W3C//DTD SVG 1.1//EN" "http://www.w3.org/Graphics/SVG/1.1/DTD/svg11.dtd">
<svg version="1.1" id="Capa_1" xmlns="http://www.w3.org/2000/svg" xmlns:xlink="http://www.w3.org/1999/xlink" x="0px" y="0px"
	 viewBox="0 0 300 300" style="enable-background:new 0 0 300 300;" xml:space="preserve">
<g>
	<path d="M150,0C67.29,0,0,67.29,0,150s67.29,150,150,150s150-67.29,150-150S232.71,0,150,0z M150,270c-66.169,0-120-53.832-120-120
		S83.831,30,150,30s120,53.832,120,120S216.169,270,150,270z"/>
	<path d="M165.375,72.108c-1.278-4.278-5.213-7.21-9.679-7.21h-11.393c-4.465,0-8.4,2.932-9.679,7.21l-44.811,150
		c-0.913,3.058-0.328,6.367,1.579,8.926c1.906,2.56,4.91,4.067,8.101,4.067h8.354c4.482,0,8.428-2.953,9.691-7.254l9.642-32.808
		h45.484l9.809,32.85c1.278,4.279,5.213,7.212,9.679,7.212h8.354c0.007,0,0.013,0.001,0.02,0c5.579,0,10.101-4.522,10.101-10.102
		c0-1.239-0.223-2.427-0.631-3.523L165.375,72.108z M135.252,167.619l14.716-49.48l14.617,49.48H135.252z"/>
</g>
<g>
</g>
<g>
</g>
<g>
</g>
<g>
</g>
<g>
</g>
<g>
</g>
<g>
</g>
<g>
</g>
<g>
</g>
<g>
</g>
<g>
</g>
<g>
</g>
<g>
</g>
<g>
</g>
<g>
</g>
</svg>
